# xmcd
#
# Track frame offsets:
#	182
#	28945
#	58407
#	88687
#	117260
#	149600
#	187592
#	220340
#	251602
#	280360
#
# Disc length: 4119 seconds
#
# Revision: 8
# Processed by: cddbd v1.5.2PL0 Copyright (c) Steve Scherf et al.
# Submitted via: EasyCDDAExtractor 15.3.0.1
#
DISCID=9b10150a
DTITLE=Madonna - You Can Dance
DYEAR=1987
DGENRE=Pop
TTITLE0=Spotlight
TTITLE1=Holiday
TTITLE2=Everybody
TTITLE3=Physical Attraction
TTITLE4=Over And Over
TTITLE5=Into The Groove
TTITLE6=Where's The Party
TTITLE7=Holiday (Dub Version)
TTITLE8=Into The Groove (Dub Version)
TTITLE9=Where's The Party (Dub Version)
EXTD=Madonna, You can Dance YEAR: 1987
EXTT0=
EXTT1=
EXTT2=
EXTT3=
EXTT4=
EXTT5=
EXTT6=
EXTT7=
EXTT8=
EXTT9=
PLAYORDER=
